G04 EAGLE Gerber RS-274X export*
G75*
%MOMM*%
%FSLAX34Y34*%
%LPD*%
%INTop Copper*%
%IPPOS*%
%AMOC8*
5,1,8,0,0,1.08239X$1,22.5*%
G01*
%ADD10P,1.732040X8X292.500000*%
%ADD11C,1.600200*%
%ADD12C,1.676400*%
%ADD13C,1.320800*%
%ADD14C,2.550000*%
%ADD15P,1.429621X8X202.500000*%
%ADD16P,1.649562X8X22.500000*%
%ADD17P,1.429621X8X22.500000*%
%ADD18P,1.649562X8X202.500000*%
%ADD19P,1.429621X8X292.500000*%
%ADD20P,1.429621X8X112.500000*%
%ADD21P,1.732040X8X202.500000*%
%ADD22C,0.635000*%
%ADD23C,1.270000*%
%ADD24C,0.756400*%

G36*
X550090Y569254D02*
X550090Y569254D01*
X550181Y569261D01*
X550211Y569273D01*
X550243Y569279D01*
X550323Y569321D01*
X550407Y569357D01*
X550439Y569383D01*
X550460Y569394D01*
X550482Y569417D01*
X550538Y569462D01*
X610538Y629462D01*
X610591Y629536D01*
X610651Y629605D01*
X610663Y629635D01*
X610682Y629661D01*
X610709Y629748D01*
X610743Y629833D01*
X610747Y629874D01*
X610754Y629897D01*
X610753Y629929D01*
X610761Y630000D01*
X610761Y650000D01*
X610747Y650090D01*
X610739Y650181D01*
X610727Y650211D01*
X610722Y650243D01*
X610679Y650323D01*
X610643Y650407D01*
X610617Y650439D01*
X610606Y650460D01*
X610583Y650482D01*
X610538Y650538D01*
X570761Y690315D01*
X570761Y709685D01*
X610538Y749462D01*
X610591Y749536D01*
X610651Y749605D01*
X610663Y749635D01*
X610682Y749661D01*
X610709Y749748D01*
X610743Y749833D01*
X610747Y749874D01*
X610754Y749897D01*
X610753Y749929D01*
X610761Y750000D01*
X610761Y770000D01*
X610747Y770090D01*
X610739Y770181D01*
X610727Y770211D01*
X610722Y770243D01*
X610679Y770323D01*
X610643Y770407D01*
X610617Y770439D01*
X610606Y770460D01*
X610583Y770482D01*
X610538Y770538D01*
X570761Y810315D01*
X570761Y829685D01*
X610538Y869462D01*
X610591Y869536D01*
X610651Y869605D01*
X610663Y869635D01*
X610682Y869661D01*
X610709Y869748D01*
X610743Y869833D01*
X610747Y869874D01*
X610754Y869897D01*
X610753Y869929D01*
X610761Y870000D01*
X610761Y890000D01*
X610747Y890090D01*
X610739Y890181D01*
X610727Y890211D01*
X610722Y890243D01*
X610679Y890323D01*
X610643Y890407D01*
X610617Y890439D01*
X610606Y890460D01*
X610583Y890482D01*
X610538Y890538D01*
X570761Y930315D01*
X570761Y949685D01*
X590538Y969462D01*
X590591Y969536D01*
X590651Y969605D01*
X590663Y969635D01*
X590682Y969661D01*
X590709Y969748D01*
X590743Y969833D01*
X590747Y969874D01*
X590754Y969897D01*
X590753Y969929D01*
X590761Y970000D01*
X590761Y1069078D01*
X590758Y1069098D01*
X590760Y1069117D01*
X590738Y1069219D01*
X590722Y1069321D01*
X590712Y1069338D01*
X590708Y1069358D01*
X590655Y1069447D01*
X590606Y1069538D01*
X590592Y1069552D01*
X590582Y1069569D01*
X590503Y1069636D01*
X590428Y1069708D01*
X590410Y1069716D01*
X590395Y1069729D01*
X590299Y1069768D01*
X590205Y1069811D01*
X590185Y1069813D01*
X590167Y1069821D01*
X590000Y1069839D01*
X460000Y1069839D01*
X459980Y1069836D01*
X459961Y1069838D01*
X459859Y1069816D01*
X459757Y1069800D01*
X459740Y1069790D01*
X459720Y1069786D01*
X459631Y1069733D01*
X459540Y1069684D01*
X459526Y1069670D01*
X459509Y1069660D01*
X459442Y1069581D01*
X459371Y1069506D01*
X459362Y1069488D01*
X459349Y1069473D01*
X459310Y1069377D01*
X459267Y1069283D01*
X459265Y1069263D01*
X459257Y1069245D01*
X459239Y1069078D01*
X459239Y570000D01*
X459242Y569980D01*
X459240Y569961D01*
X459262Y569859D01*
X459279Y569757D01*
X459288Y569740D01*
X459292Y569720D01*
X459345Y569631D01*
X459394Y569540D01*
X459408Y569526D01*
X459418Y569509D01*
X459497Y569442D01*
X459572Y569371D01*
X459590Y569362D01*
X459605Y569349D01*
X459701Y569310D01*
X459795Y569267D01*
X459815Y569265D01*
X459833Y569257D01*
X460000Y569239D01*
X550000Y569239D01*
X550090Y569254D01*
G37*
%LPC*%
G36*
X597223Y641523D02*
X597223Y641523D01*
X597223Y650161D01*
X599909Y650161D01*
X605861Y644209D01*
X605861Y641523D01*
X597223Y641523D01*
G37*
%LPD*%
%LPC*%
G36*
X535823Y1021523D02*
X535823Y1021523D01*
X535823Y1030161D01*
X538509Y1030161D01*
X544461Y1024209D01*
X544461Y1021523D01*
X535823Y1021523D01*
G37*
%LPD*%
%LPC*%
G36*
X535823Y741523D02*
X535823Y741523D01*
X535823Y750161D01*
X538509Y750161D01*
X544461Y744209D01*
X544461Y741523D01*
X535823Y741523D01*
G37*
%LPD*%
%LPC*%
G36*
X597223Y761523D02*
X597223Y761523D01*
X597223Y770161D01*
X599909Y770161D01*
X605861Y764209D01*
X605861Y761523D01*
X597223Y761523D01*
G37*
%LPD*%
%LPC*%
G36*
X535823Y601523D02*
X535823Y601523D01*
X535823Y610161D01*
X538509Y610161D01*
X544461Y604209D01*
X544461Y601523D01*
X535823Y601523D01*
G37*
%LPD*%
%LPC*%
G36*
X535823Y811523D02*
X535823Y811523D01*
X535823Y820161D01*
X538509Y820161D01*
X544461Y814209D01*
X544461Y811523D01*
X535823Y811523D01*
G37*
%LPD*%
%LPC*%
G36*
X535823Y951523D02*
X535823Y951523D01*
X535823Y960161D01*
X538509Y960161D01*
X544461Y954209D01*
X544461Y951523D01*
X535823Y951523D01*
G37*
%LPD*%
%LPC*%
G36*
X535823Y671523D02*
X535823Y671523D01*
X535823Y680161D01*
X538509Y680161D01*
X544461Y674209D01*
X544461Y671523D01*
X535823Y671523D01*
G37*
%LPD*%
%LPC*%
G36*
X597223Y881523D02*
X597223Y881523D01*
X597223Y890161D01*
X599909Y890161D01*
X605861Y884209D01*
X605861Y881523D01*
X597223Y881523D01*
G37*
%LPD*%
%LPC*%
G36*
X535823Y881523D02*
X535823Y881523D01*
X535823Y890161D01*
X538509Y890161D01*
X544461Y884209D01*
X544461Y881523D01*
X535823Y881523D01*
G37*
%LPD*%
%LPC*%
G36*
X585539Y881523D02*
X585539Y881523D01*
X585539Y884209D01*
X591491Y890161D01*
X594177Y890161D01*
X594177Y881523D01*
X585539Y881523D01*
G37*
%LPD*%
%LPC*%
G36*
X524139Y881523D02*
X524139Y881523D01*
X524139Y884209D01*
X530091Y890161D01*
X532777Y890161D01*
X532777Y881523D01*
X524139Y881523D01*
G37*
%LPD*%
%LPC*%
G36*
X524139Y741523D02*
X524139Y741523D01*
X524139Y744209D01*
X530091Y750161D01*
X532777Y750161D01*
X532777Y741523D01*
X524139Y741523D01*
G37*
%LPD*%
%LPC*%
G36*
X585539Y761523D02*
X585539Y761523D01*
X585539Y764209D01*
X591491Y770161D01*
X594177Y770161D01*
X594177Y761523D01*
X585539Y761523D01*
G37*
%LPD*%
%LPC*%
G36*
X524139Y1021523D02*
X524139Y1021523D01*
X524139Y1024209D01*
X530091Y1030161D01*
X532777Y1030161D01*
X532777Y1021523D01*
X524139Y1021523D01*
G37*
%LPD*%
%LPC*%
G36*
X585539Y641523D02*
X585539Y641523D01*
X585539Y644209D01*
X591491Y650161D01*
X594177Y650161D01*
X594177Y641523D01*
X585539Y641523D01*
G37*
%LPD*%
%LPC*%
G36*
X524139Y671523D02*
X524139Y671523D01*
X524139Y674209D01*
X530091Y680161D01*
X532777Y680161D01*
X532777Y671523D01*
X524139Y671523D01*
G37*
%LPD*%
%LPC*%
G36*
X524139Y951523D02*
X524139Y951523D01*
X524139Y954209D01*
X530091Y960161D01*
X532777Y960161D01*
X532777Y951523D01*
X524139Y951523D01*
G37*
%LPD*%
%LPC*%
G36*
X524139Y811523D02*
X524139Y811523D01*
X524139Y814209D01*
X530091Y820161D01*
X532777Y820161D01*
X532777Y811523D01*
X524139Y811523D01*
G37*
%LPD*%
%LPC*%
G36*
X524139Y601523D02*
X524139Y601523D01*
X524139Y604209D01*
X530091Y610161D01*
X532777Y610161D01*
X532777Y601523D01*
X524139Y601523D01*
G37*
%LPD*%
%LPC*%
G36*
X535823Y869839D02*
X535823Y869839D01*
X535823Y878477D01*
X544461Y878477D01*
X544461Y875791D01*
X538509Y869839D01*
X535823Y869839D01*
G37*
%LPD*%
%LPC*%
G36*
X535823Y659839D02*
X535823Y659839D01*
X535823Y668477D01*
X544461Y668477D01*
X544461Y665791D01*
X538509Y659839D01*
X535823Y659839D01*
G37*
%LPD*%
%LPC*%
G36*
X597223Y869839D02*
X597223Y869839D01*
X597223Y878477D01*
X605861Y878477D01*
X605861Y875791D01*
X599909Y869839D01*
X597223Y869839D01*
G37*
%LPD*%
%LPC*%
G36*
X535823Y799839D02*
X535823Y799839D01*
X535823Y808477D01*
X544461Y808477D01*
X544461Y805791D01*
X538509Y799839D01*
X535823Y799839D01*
G37*
%LPD*%
%LPC*%
G36*
X535823Y729839D02*
X535823Y729839D01*
X535823Y738477D01*
X544461Y738477D01*
X544461Y735791D01*
X538509Y729839D01*
X535823Y729839D01*
G37*
%LPD*%
%LPC*%
G36*
X535823Y939839D02*
X535823Y939839D01*
X535823Y948477D01*
X544461Y948477D01*
X544461Y945791D01*
X538509Y939839D01*
X535823Y939839D01*
G37*
%LPD*%
%LPC*%
G36*
X535823Y1009839D02*
X535823Y1009839D01*
X535823Y1018477D01*
X544461Y1018477D01*
X544461Y1015791D01*
X538509Y1009839D01*
X535823Y1009839D01*
G37*
%LPD*%
%LPC*%
G36*
X535823Y589839D02*
X535823Y589839D01*
X535823Y598477D01*
X544461Y598477D01*
X544461Y595791D01*
X538509Y589839D01*
X535823Y589839D01*
G37*
%LPD*%
%LPC*%
G36*
X597223Y749839D02*
X597223Y749839D01*
X597223Y758477D01*
X605861Y758477D01*
X605861Y755791D01*
X599909Y749839D01*
X597223Y749839D01*
G37*
%LPD*%
%LPC*%
G36*
X597223Y629839D02*
X597223Y629839D01*
X597223Y638477D01*
X605861Y638477D01*
X605861Y635791D01*
X599909Y629839D01*
X597223Y629839D01*
G37*
%LPD*%
%LPC*%
G36*
X591491Y749839D02*
X591491Y749839D01*
X585539Y755791D01*
X585539Y758477D01*
X594177Y758477D01*
X594177Y749839D01*
X591491Y749839D01*
G37*
%LPD*%
%LPC*%
G36*
X530091Y589839D02*
X530091Y589839D01*
X524139Y595791D01*
X524139Y598477D01*
X532777Y598477D01*
X532777Y589839D01*
X530091Y589839D01*
G37*
%LPD*%
%LPC*%
G36*
X530091Y1009839D02*
X530091Y1009839D01*
X524139Y1015791D01*
X524139Y1018477D01*
X532777Y1018477D01*
X532777Y1009839D01*
X530091Y1009839D01*
G37*
%LPD*%
%LPC*%
G36*
X530091Y799839D02*
X530091Y799839D01*
X524139Y805791D01*
X524139Y808477D01*
X532777Y808477D01*
X532777Y799839D01*
X530091Y799839D01*
G37*
%LPD*%
%LPC*%
G36*
X530091Y729839D02*
X530091Y729839D01*
X524139Y735791D01*
X524139Y738477D01*
X532777Y738477D01*
X532777Y729839D01*
X530091Y729839D01*
G37*
%LPD*%
%LPC*%
G36*
X591491Y629839D02*
X591491Y629839D01*
X585539Y635791D01*
X585539Y638477D01*
X594177Y638477D01*
X594177Y629839D01*
X591491Y629839D01*
G37*
%LPD*%
%LPC*%
G36*
X530091Y869839D02*
X530091Y869839D01*
X524139Y875791D01*
X524139Y878477D01*
X532777Y878477D01*
X532777Y869839D01*
X530091Y869839D01*
G37*
%LPD*%
%LPC*%
G36*
X530091Y939839D02*
X530091Y939839D01*
X524139Y945791D01*
X524139Y948477D01*
X532777Y948477D01*
X532777Y939839D01*
X530091Y939839D01*
G37*
%LPD*%
%LPC*%
G36*
X591491Y869839D02*
X591491Y869839D01*
X585539Y875791D01*
X585539Y878477D01*
X594177Y878477D01*
X594177Y869839D01*
X591491Y869839D01*
G37*
%LPD*%
%LPC*%
G36*
X530091Y659839D02*
X530091Y659839D01*
X524139Y665791D01*
X524139Y668477D01*
X532777Y668477D01*
X532777Y659839D01*
X530091Y659839D01*
G37*
%LPD*%
%LPC*%
G36*
X595699Y759999D02*
X595699Y759999D01*
X595699Y760001D01*
X595701Y760001D01*
X595701Y759999D01*
X595699Y759999D01*
G37*
%LPD*%
%LPC*%
G36*
X595699Y879999D02*
X595699Y879999D01*
X595699Y880001D01*
X595701Y880001D01*
X595701Y879999D01*
X595699Y879999D01*
G37*
%LPD*%
%LPC*%
G36*
X595699Y639999D02*
X595699Y639999D01*
X595699Y640001D01*
X595701Y640001D01*
X595701Y639999D01*
X595699Y639999D01*
G37*
%LPD*%
%LPC*%
G36*
X534299Y669999D02*
X534299Y669999D01*
X534299Y670001D01*
X534301Y670001D01*
X534301Y669999D01*
X534299Y669999D01*
G37*
%LPD*%
%LPC*%
G36*
X534299Y809999D02*
X534299Y809999D01*
X534299Y810001D01*
X534301Y810001D01*
X534301Y809999D01*
X534299Y809999D01*
G37*
%LPD*%
%LPC*%
G36*
X534299Y949999D02*
X534299Y949999D01*
X534299Y950001D01*
X534301Y950001D01*
X534301Y949999D01*
X534299Y949999D01*
G37*
%LPD*%
%LPC*%
G36*
X534299Y739999D02*
X534299Y739999D01*
X534299Y740001D01*
X534301Y740001D01*
X534301Y739999D01*
X534299Y739999D01*
G37*
%LPD*%
%LPC*%
G36*
X534299Y599999D02*
X534299Y599999D01*
X534299Y600001D01*
X534301Y600001D01*
X534301Y599999D01*
X534299Y599999D01*
G37*
%LPD*%
%LPC*%
G36*
X534299Y1019999D02*
X534299Y1019999D01*
X534299Y1020001D01*
X534301Y1020001D01*
X534301Y1019999D01*
X534299Y1019999D01*
G37*
%LPD*%
%LPC*%
G36*
X534299Y879999D02*
X534299Y879999D01*
X534299Y880001D01*
X534301Y880001D01*
X534301Y879999D01*
X534299Y879999D01*
G37*
%LPD*%
D10*
X970000Y187300D03*
D11*
X970000Y212700D03*
D12*
X550000Y179200D03*
X550000Y280800D03*
X820000Y179200D03*
X820000Y280800D03*
X850000Y179200D03*
X850000Y280800D03*
X880000Y179200D03*
X880000Y280800D03*
X910000Y179200D03*
X910000Y280800D03*
X580000Y179200D03*
X580000Y280800D03*
X610000Y179200D03*
X610000Y280800D03*
X640000Y179200D03*
X640000Y280800D03*
X670000Y179200D03*
X670000Y280800D03*
X700000Y179200D03*
X700000Y280800D03*
X730000Y179200D03*
X730000Y280800D03*
X760000Y280800D03*
X760000Y179200D03*
X790000Y280800D03*
X790000Y179200D03*
D13*
X554704Y333800D02*
X541496Y333800D01*
X541496Y359200D02*
X554704Y359200D01*
X554704Y486200D02*
X541496Y486200D01*
X478504Y486200D02*
X465296Y486200D01*
X541496Y384600D02*
X554704Y384600D01*
X554704Y410000D02*
X541496Y410000D01*
X541496Y460800D02*
X554704Y460800D01*
X554704Y435400D02*
X541496Y435400D01*
X478504Y460800D02*
X465296Y460800D01*
X465296Y435400D02*
X478504Y435400D01*
X478504Y410000D02*
X465296Y410000D01*
X465296Y384600D02*
X478504Y384600D01*
X478504Y359200D02*
X465296Y359200D01*
X465296Y333800D02*
X478504Y333800D01*
X701496Y333800D02*
X714704Y333800D01*
X714704Y359200D02*
X701496Y359200D01*
X701496Y486200D02*
X714704Y486200D01*
X638504Y486200D02*
X625296Y486200D01*
X701496Y384600D02*
X714704Y384600D01*
X714704Y410000D02*
X701496Y410000D01*
X701496Y460800D02*
X714704Y460800D01*
X714704Y435400D02*
X701496Y435400D01*
X638504Y460800D02*
X625296Y460800D01*
X625296Y435400D02*
X638504Y435400D01*
X638504Y410000D02*
X625296Y410000D01*
X625296Y384600D02*
X638504Y384600D01*
X638504Y359200D02*
X625296Y359200D01*
X625296Y333800D02*
X638504Y333800D01*
X891496Y333800D02*
X904704Y333800D01*
X904704Y359200D02*
X891496Y359200D01*
X891496Y486200D02*
X904704Y486200D01*
X828504Y486200D02*
X815296Y486200D01*
X891496Y384600D02*
X904704Y384600D01*
X904704Y410000D02*
X891496Y410000D01*
X891496Y460800D02*
X904704Y460800D01*
X904704Y435400D02*
X891496Y435400D01*
X828504Y460800D02*
X815296Y460800D01*
X815296Y435400D02*
X828504Y435400D01*
X828504Y410000D02*
X815296Y410000D01*
X815296Y384600D02*
X828504Y384600D01*
X828504Y359200D02*
X815296Y359200D01*
X815296Y333800D02*
X828504Y333800D01*
D14*
X242750Y918400D02*
X217250Y918400D01*
X217250Y878800D02*
X242750Y878800D01*
X242750Y839200D02*
X217250Y839200D01*
X217250Y799600D02*
X242750Y799600D01*
X242750Y760000D02*
X217250Y760000D01*
X217250Y720400D02*
X242750Y720400D01*
X242750Y680800D02*
X217250Y680800D01*
X217250Y641200D02*
X242750Y641200D01*
X242750Y601600D02*
X217250Y601600D01*
X217250Y518400D02*
X242750Y518400D01*
X242750Y478800D02*
X217250Y478800D01*
X217250Y439200D02*
X242750Y439200D01*
X242750Y399600D02*
X217250Y399600D01*
X217250Y360000D02*
X242750Y360000D01*
X242750Y320400D02*
X217250Y320400D01*
X217250Y280800D02*
X242750Y280800D01*
X242750Y241200D02*
X217250Y241200D01*
X217250Y201600D02*
X242750Y201600D01*
X472200Y112750D02*
X472200Y87250D01*
X511800Y87250D02*
X511800Y112750D01*
X551400Y112750D02*
X551400Y87250D01*
X591000Y87250D02*
X591000Y112750D01*
X630600Y112750D02*
X630600Y87250D01*
X670200Y87250D02*
X670200Y112750D01*
X709800Y112750D02*
X709800Y87250D01*
X749400Y87250D02*
X749400Y112750D01*
X789000Y112750D02*
X789000Y87250D01*
X828600Y87250D02*
X828600Y112750D01*
X868200Y112750D02*
X868200Y87250D01*
X907800Y87250D02*
X907800Y112750D01*
X997250Y290800D02*
X1022750Y290800D01*
X1022750Y330400D02*
X997250Y330400D01*
X997250Y370000D02*
X1022750Y370000D01*
X1022750Y409600D02*
X997250Y409600D01*
X997250Y449200D02*
X1022750Y449200D01*
X1022750Y510800D02*
X997250Y510800D01*
X997250Y550400D02*
X1022750Y550400D01*
X1022750Y590000D02*
X997250Y590000D01*
X997250Y629600D02*
X1022750Y629600D01*
X1022750Y669200D02*
X997250Y669200D01*
X997250Y730800D02*
X1022750Y730800D01*
X1022750Y770400D02*
X997250Y770400D01*
X997250Y810000D02*
X1022750Y810000D01*
X1022750Y849600D02*
X997250Y849600D01*
X997250Y889200D02*
X1022750Y889200D01*
D15*
X492700Y220000D03*
X467300Y220000D03*
D16*
X305700Y1020000D03*
X534300Y1020000D03*
D17*
X309200Y470000D03*
X410800Y470000D03*
X309200Y440000D03*
X410800Y440000D03*
X309200Y410000D03*
X410800Y410000D03*
X309200Y380000D03*
X410800Y380000D03*
X309200Y350000D03*
X410800Y350000D03*
X309200Y320000D03*
X410800Y320000D03*
X309200Y290000D03*
X410800Y290000D03*
X309200Y260000D03*
X410800Y260000D03*
X309200Y230000D03*
X410800Y230000D03*
X309200Y200000D03*
X410800Y200000D03*
D16*
X305700Y950000D03*
X534300Y950000D03*
D17*
X309200Y170000D03*
X410800Y170000D03*
X309200Y140000D03*
X410800Y140000D03*
X309200Y110000D03*
X410800Y110000D03*
X589200Y940000D03*
X690800Y940000D03*
D15*
X830800Y940000D03*
X729200Y940000D03*
D18*
X824300Y880000D03*
X595700Y880000D03*
D17*
X589200Y820000D03*
X690800Y820000D03*
D15*
X830800Y820000D03*
X729200Y820000D03*
D18*
X824300Y760000D03*
X595700Y760000D03*
D17*
X589200Y700000D03*
X690800Y700000D03*
D16*
X305700Y880000D03*
X534300Y880000D03*
D15*
X830800Y700000D03*
X729200Y700000D03*
D18*
X824300Y640000D03*
X595700Y640000D03*
D17*
X449200Y550000D03*
X550800Y550000D03*
X589200Y580000D03*
X690800Y580000D03*
X589200Y550000D03*
X690800Y550000D03*
X729200Y580000D03*
X830800Y580000D03*
D15*
X830800Y550000D03*
X729200Y550000D03*
D19*
X750000Y480800D03*
X750000Y379200D03*
X785500Y479300D03*
X785500Y377700D03*
D20*
X940000Y339200D03*
X940000Y440800D03*
D16*
X305700Y810000D03*
X534300Y810000D03*
D15*
X280800Y160000D03*
X179200Y160000D03*
X280800Y130000D03*
X179200Y130000D03*
D16*
X305700Y740000D03*
X534300Y740000D03*
X305700Y670000D03*
X534300Y670000D03*
X305700Y600000D03*
X534300Y600000D03*
D17*
X309200Y530000D03*
X410800Y530000D03*
X309200Y500000D03*
X410800Y500000D03*
D21*
X522700Y520000D03*
X497300Y520000D03*
X682700Y520000D03*
X657300Y520000D03*
X872700Y520000D03*
X847300Y520000D03*
D22*
X545000Y285000D02*
X475000Y355000D01*
X545000Y285000D02*
X550000Y285000D01*
X475000Y355000D02*
X471900Y359200D01*
X550000Y285000D02*
X550000Y280800D01*
X485000Y320000D02*
X475000Y330000D01*
X485000Y320000D02*
X490000Y320000D01*
X545000Y265000D01*
X565000Y265000D01*
X580000Y280000D01*
X475000Y330000D02*
X471900Y333800D01*
X580000Y280800D02*
X580000Y280000D01*
X600000Y305000D02*
X550000Y355000D01*
X600000Y305000D02*
X600000Y295000D01*
X610000Y285000D01*
X550000Y355000D02*
X548100Y359200D01*
X610000Y285000D02*
X610000Y280800D01*
X595000Y285000D02*
X550000Y330000D01*
X605000Y265000D02*
X625000Y265000D01*
X605000Y265000D02*
X595000Y275000D01*
X595000Y285000D01*
X625000Y265000D02*
X640000Y280000D01*
X550000Y330000D02*
X548100Y333800D01*
X640000Y280800D02*
X640000Y280000D01*
X475000Y100000D02*
X475000Y65000D01*
X515000Y65000D01*
X530000Y80000D01*
X530000Y150000D01*
X475000Y100000D02*
X472200Y100000D01*
X530000Y150000D02*
X550000Y170000D01*
X550000Y179200D01*
X565000Y195000D02*
X580000Y180000D01*
X565000Y195000D02*
X545000Y195000D01*
X515000Y165000D01*
X515000Y100000D01*
X580000Y179200D02*
X580000Y180000D01*
X515000Y100000D02*
X511800Y100000D01*
X835000Y195000D02*
X850000Y180000D01*
X835000Y195000D02*
X565000Y195000D01*
X850000Y180000D02*
X850000Y179200D01*
X880000Y175000D02*
X840000Y135000D01*
X585000Y135000D01*
X550000Y100000D01*
X880000Y175000D02*
X880000Y179200D01*
X551400Y100000D02*
X550000Y100000D01*
D23*
X940000Y280000D02*
X970000Y250000D01*
X970000Y212700D01*
X940000Y280000D02*
X910000Y280000D01*
X910000Y280800D01*
X865000Y580000D02*
X830800Y580000D01*
X865000Y580000D02*
X875000Y570000D01*
X875000Y550000D02*
X875000Y520000D01*
X875000Y550000D02*
X875000Y570000D01*
X875000Y520000D02*
X872700Y520000D01*
X875000Y550000D02*
X1010000Y550000D01*
X1010000Y550400D01*
X180000Y160000D02*
X180000Y130000D01*
X179200Y130000D01*
X179200Y160000D02*
X180000Y160000D01*
X205000Y110000D02*
X309200Y110000D01*
X205000Y110000D02*
X185000Y130000D01*
X179200Y130000D01*
X450000Y550000D02*
X470000Y570000D01*
X450000Y550000D02*
X449200Y550000D01*
X520000Y570000D02*
X520000Y520000D01*
X522700Y520000D01*
X260000Y550000D02*
X230000Y520000D01*
X260000Y550000D02*
X449200Y550000D01*
X230000Y520000D02*
X230000Y518400D01*
X1005000Y780000D02*
X1010000Y775000D01*
X800000Y780000D02*
X600000Y780000D01*
X800000Y780000D02*
X1005000Y780000D01*
X1010000Y775000D02*
X1010000Y770400D01*
X680000Y520000D02*
X590000Y610000D01*
X680000Y520000D02*
X682700Y520000D01*
X225000Y515000D02*
X180000Y515000D01*
X180000Y165000D01*
X179200Y160000D01*
X225000Y515000D02*
X230000Y518400D01*
X800000Y615000D02*
X830000Y585000D01*
X800000Y615000D02*
X800000Y780000D01*
X830000Y585000D02*
X830800Y580000D01*
X872700Y520000D02*
X872700Y407300D01*
X697178Y395522D02*
X695499Y395522D01*
X697178Y395522D02*
X708100Y384600D01*
X682700Y408321D02*
X682700Y520000D01*
X682700Y408321D02*
X695499Y395522D01*
X537178Y395522D02*
X535499Y395522D01*
X537178Y395522D02*
X548100Y384600D01*
X522700Y408321D02*
X522700Y520000D01*
X522700Y408321D02*
X535499Y395522D01*
X910000Y309200D02*
X910000Y280800D01*
X910000Y309200D02*
X940000Y339200D01*
X970800Y370000D01*
X1010000Y370000D01*
X895400Y384600D02*
X872700Y407300D01*
X895400Y384600D02*
X898100Y384600D01*
X919600Y384600D01*
X920000Y385000D01*
X940000Y365000D01*
X940000Y339200D01*
D22*
X630000Y355000D02*
X610000Y335000D01*
X630000Y300000D02*
X650000Y300000D01*
X630000Y300000D02*
X610000Y320000D01*
X610000Y335000D01*
X650000Y300000D02*
X665000Y285000D01*
X670000Y285000D01*
X630000Y355000D02*
X631900Y359200D01*
X670000Y285000D02*
X670000Y280800D01*
X655700Y310000D02*
X631900Y333800D01*
X670800Y310000D02*
X700000Y280800D01*
X670800Y310000D02*
X655700Y310000D01*
X710000Y355000D02*
X730000Y335000D01*
X730000Y280800D01*
X710000Y355000D02*
X708100Y359200D01*
D23*
X910000Y175000D02*
X870000Y135000D01*
X870000Y100000D01*
X910000Y175000D02*
X910000Y179200D01*
X870000Y100000D02*
X868200Y100000D01*
D22*
X410000Y500000D02*
X410000Y530000D01*
X410800Y530000D01*
X470000Y435000D02*
X460000Y425000D01*
X405000Y425000D01*
X395000Y435000D01*
X395000Y500000D01*
X410000Y500000D01*
X470000Y435000D02*
X471900Y435400D01*
X410800Y500000D02*
X410000Y500000D01*
X410000Y470000D02*
X410000Y440000D01*
X410800Y440000D01*
X410800Y470000D02*
X410000Y470000D01*
X455000Y470000D02*
X470000Y485000D01*
X455000Y470000D02*
X410800Y470000D01*
X470000Y485000D02*
X471900Y486200D01*
X410000Y410000D02*
X410000Y380000D01*
X410800Y380000D01*
X410800Y410000D02*
X410000Y410000D01*
X470000Y310000D02*
X485000Y310000D01*
X470000Y310000D02*
X415000Y365000D01*
X415000Y380000D01*
X410800Y380000D01*
D24*
X485000Y310000D03*
D22*
X410000Y320000D02*
X410000Y350000D01*
X410000Y320000D02*
X410800Y320000D01*
X410800Y350000D02*
X410000Y350000D01*
X410000Y290000D02*
X410000Y260000D01*
X410800Y260000D01*
X410800Y290000D02*
X410000Y290000D01*
X505000Y290000D02*
X510000Y285000D01*
X505000Y290000D02*
X410800Y290000D01*
D24*
X510000Y285000D03*
D22*
X410000Y230000D02*
X410000Y200000D01*
X410800Y200000D01*
X410800Y230000D02*
X410000Y230000D01*
X410000Y170000D02*
X410000Y140000D01*
X410800Y140000D01*
X410800Y170000D02*
X410000Y170000D01*
X675000Y325000D02*
X690000Y310000D01*
X675000Y325000D02*
X675000Y390000D01*
X690000Y310000D02*
X715000Y285000D01*
X715000Y250000D01*
X540000Y250000D01*
X485000Y195000D01*
X440000Y195000D01*
D24*
X675000Y390000D03*
X440000Y195000D03*
D22*
X690800Y940000D02*
X729200Y940000D01*
X729200Y820000D02*
X690800Y820000D01*
X690800Y700000D02*
X729200Y700000D01*
X825000Y565000D02*
X845000Y565000D01*
X860000Y550000D01*
X860000Y435000D01*
X825000Y565000D02*
X690000Y700000D01*
X690800Y700000D01*
D24*
X860000Y435000D03*
D22*
X305000Y500000D02*
X285000Y480000D01*
X230000Y480000D01*
X305000Y500000D02*
X309200Y500000D01*
X230000Y480000D02*
X230000Y478800D01*
X230000Y440000D02*
X309200Y440000D01*
X230000Y440000D02*
X230000Y439200D01*
X305000Y380000D02*
X285000Y360000D01*
X230000Y360000D01*
X305000Y380000D02*
X309200Y380000D01*
X309200Y320000D02*
X230000Y320000D01*
X230000Y320400D01*
X285000Y280000D02*
X305000Y260000D01*
X285000Y280000D02*
X230000Y280000D01*
X305000Y260000D02*
X309200Y260000D01*
X230000Y280000D02*
X230000Y280800D01*
X265000Y240000D02*
X305000Y200000D01*
X265000Y240000D02*
X230000Y240000D01*
X305000Y200000D02*
X309200Y200000D01*
X230000Y240000D02*
X230000Y241200D01*
X300000Y145000D02*
X305000Y140000D01*
X300000Y145000D02*
X275000Y145000D01*
X230000Y190000D01*
X230000Y201600D01*
X305000Y140000D02*
X309200Y140000D01*
X865000Y910000D02*
X835000Y940000D01*
X865000Y910000D02*
X1030000Y910000D01*
X1045000Y895000D01*
X1025000Y735000D02*
X1010000Y735000D01*
X1025000Y735000D02*
X1045000Y755000D01*
X1045000Y895000D01*
X835000Y940000D02*
X830800Y940000D01*
X1010000Y735000D02*
X1010000Y730800D01*
X925000Y610000D02*
X835000Y700000D01*
X925000Y610000D02*
X1030000Y610000D01*
X1055000Y585000D01*
X1035000Y295000D02*
X1010000Y295000D01*
X1035000Y295000D02*
X1055000Y315000D01*
X1055000Y585000D01*
X835000Y700000D02*
X830800Y700000D01*
X1010000Y295000D02*
X1010000Y290800D01*
X820000Y280800D02*
X820000Y330000D01*
X821900Y333800D01*
X850000Y310000D02*
X895000Y355000D01*
X850000Y310000D02*
X850000Y280800D01*
X895000Y355000D02*
X898100Y359200D01*
X895000Y300000D02*
X880000Y285000D01*
X895000Y300000D02*
X895000Y330000D01*
X898100Y333800D01*
X880000Y285000D02*
X880000Y280800D01*
X490000Y425000D02*
X475000Y410000D01*
X490000Y445000D02*
X475000Y460000D01*
X490000Y445000D02*
X490000Y425000D01*
X475000Y410000D02*
X471900Y410000D01*
X475000Y460000D02*
X471900Y460800D01*
X550800Y550000D02*
X589200Y550000D01*
X550000Y550000D02*
X550000Y490000D01*
X550000Y550000D02*
X550800Y550000D01*
X550000Y490000D02*
X548100Y486200D01*
X606500Y486200D01*
X631900Y460800D01*
X649807Y440082D02*
X649807Y430718D01*
X631900Y457989D02*
X631900Y460800D01*
X631900Y412811D02*
X631900Y410000D01*
X649807Y440082D02*
X631900Y457989D01*
X649807Y430718D02*
X631900Y412811D01*
X631900Y410000D02*
X606500Y435400D01*
X548100Y435400D01*
X898100Y486200D02*
X940000Y444300D01*
X940000Y440800D01*
X934600Y435400D01*
X898100Y435400D01*
X729200Y580000D02*
X715000Y580000D01*
X690800Y580000D01*
X710000Y465000D02*
X755000Y465000D01*
X770000Y480000D02*
X785000Y495000D01*
X770000Y480000D02*
X755000Y465000D01*
X785000Y495000D02*
X790000Y495000D01*
X800000Y485000D01*
X800000Y440000D01*
X820000Y440000D01*
X710000Y465000D02*
X708100Y460800D01*
X820000Y440000D02*
X821900Y435400D01*
X715000Y500000D02*
X715000Y580000D01*
X715000Y500000D02*
X750000Y500000D01*
X770000Y480000D01*
X290000Y125000D02*
X285000Y130000D01*
X290000Y125000D02*
X455000Y125000D01*
X560000Y230000D01*
X740000Y230000D01*
X790000Y280000D01*
X285000Y130000D02*
X280800Y130000D01*
X790000Y280000D02*
X790000Y280800D01*
X790000Y375000D01*
X785500Y377700D01*
X790000Y410000D02*
X790000Y475000D01*
X790000Y410000D02*
X821900Y410000D01*
X790000Y475000D02*
X785500Y479300D01*
X495000Y185000D02*
X295000Y185000D01*
X285000Y175000D01*
X285000Y160000D01*
X495000Y185000D02*
X550000Y240000D01*
X720000Y240000D01*
X760000Y280000D01*
X285000Y160000D02*
X280800Y160000D01*
X760000Y280000D02*
X760000Y280800D01*
X760000Y285000D02*
X750000Y295000D01*
X750000Y379200D01*
X760000Y285000D02*
X760000Y280800D01*
X825000Y360000D02*
X840000Y375000D01*
X835000Y505000D02*
X775000Y505000D01*
X835000Y505000D02*
X840000Y500000D01*
X840000Y375000D01*
X775000Y505000D02*
X730000Y550000D01*
X821900Y359200D02*
X825000Y360000D01*
X730000Y550000D02*
X729200Y550000D01*
X710000Y485000D02*
X750000Y485000D01*
X710000Y485000D02*
X708100Y486200D01*
X750000Y485000D02*
X750000Y480800D01*
X825000Y880000D02*
X830000Y885000D01*
X1010000Y885000D01*
X825000Y880000D02*
X824300Y880000D01*
X1010000Y885000D02*
X1010000Y889200D01*
X825000Y760000D02*
X915000Y670000D01*
X1010000Y670000D01*
X825000Y760000D02*
X824300Y760000D01*
X1010000Y670000D02*
X1010000Y669200D01*
X895000Y570000D02*
X825000Y640000D01*
X895000Y570000D02*
X1030000Y570000D01*
X1045000Y555000D01*
X1020000Y450000D02*
X1010000Y450000D01*
X1020000Y450000D02*
X1045000Y475000D01*
X1045000Y555000D01*
X825000Y640000D02*
X824300Y640000D01*
X1010000Y450000D02*
X1010000Y449200D01*
X305000Y1020000D02*
X225000Y940000D01*
X210000Y940000D01*
X195000Y925000D01*
X220000Y840000D02*
X230000Y840000D01*
X220000Y840000D02*
X195000Y865000D01*
X195000Y925000D01*
X305000Y1020000D02*
X305700Y1020000D01*
X230000Y840000D02*
X230000Y839200D01*
X305000Y895000D02*
X305000Y950000D01*
X305000Y895000D02*
X300000Y895000D01*
X265000Y860000D01*
X240000Y800000D02*
X230000Y800000D01*
X240000Y800000D02*
X265000Y825000D01*
X265000Y860000D01*
X305000Y950000D02*
X305700Y950000D01*
X230000Y800000D02*
X230000Y799600D01*
X305000Y825000D02*
X305000Y880000D01*
X305000Y825000D02*
X300000Y825000D01*
X275000Y800000D01*
X240000Y765000D02*
X235000Y765000D01*
X240000Y765000D02*
X275000Y800000D01*
X235000Y765000D02*
X230000Y760000D01*
X305000Y880000D02*
X305700Y880000D01*
X305000Y795000D02*
X235000Y725000D01*
X305000Y795000D02*
X305000Y810000D01*
X235000Y725000D02*
X230000Y725000D01*
X305000Y810000D02*
X305700Y810000D01*
X230000Y725000D02*
X230000Y720400D01*
X250000Y685000D02*
X305000Y740000D01*
X250000Y685000D02*
X230000Y685000D01*
X305000Y740000D02*
X305700Y740000D01*
X230000Y685000D02*
X230000Y680800D01*
X280000Y645000D02*
X305000Y670000D01*
X280000Y645000D02*
X230000Y645000D01*
X305000Y670000D02*
X305700Y670000D01*
X230000Y645000D02*
X230000Y641200D01*
X230000Y600000D02*
X305700Y600000D01*
X230000Y600000D02*
X230000Y601600D01*
M02*
