M48
;GenerationSoftware,Autodesk,EAGLE,9.3.0*%
;CreationDate,2019-02-18T03:29:43Z*%
FMAT,2
ICI,OFF
METRIC,TZ,000.000
T5C0.350
T4C0.813
T3C1.016
T2C1.118
T1C1.700
%
G90
M71
T1
X101000Y29080
X23000Y32040
X23000Y36000
X23000Y39960
X23000Y43920
X23000Y47880
X23000Y51840
X23000Y60160
X23000Y64120
X23000Y68080
X23000Y72040
X23000Y76000
X23000Y79960
X23000Y83920
X23000Y87880
X23000Y91840
X23000Y24120
X23000Y20160
X47220Y10000
X51180Y10000
X55140Y10000
X59100Y10000
X63060Y10000
X67020Y10000
X70980Y10000
X74940Y10000
X78900Y10000
X82860Y10000
X86820Y10000
X90780Y10000
X101000Y33040
X101000Y37000
X101000Y40960
X101000Y44920
X101000Y51080
X101000Y55040
X101000Y59000
X101000Y62960
X101000Y66920
X101000Y73080
X101000Y77040
X101000Y81000
X101000Y84960
X101000Y88920
X23000Y28080
T2
X64000Y28080
X55000Y17920
X55000Y28080
X82000Y17920
X82000Y28080
X85000Y17920
X85000Y28080
X88000Y17920
X88000Y28080
X91000Y17920
X91000Y28080
X58000Y17920
X58000Y28080
X79000Y17920
X79000Y28080
X76000Y17920
X76000Y28080
X73000Y28080
X73000Y17920
X70000Y28080
X70000Y17920
X67000Y28080
X67000Y17920
X61000Y17920
X64000Y17920
X61000Y28080
T3
X30570Y95000
X53430Y81000
X30570Y81000
X59570Y64000
X82430Y64000
X53430Y88000
X30570Y88000
X59570Y76000
X82430Y76000
X59570Y88000
X82430Y88000
X53430Y95000
X30570Y102000
X30570Y74000
X53430Y74000
X30570Y67000
X53430Y67000
X30570Y60000
X53430Y60000
X53430Y102000
T4
X82190Y33380
X82190Y35920
X82190Y38460
X82190Y41000
X82190Y43540
X82190Y46080
X89810Y43540
X89810Y46080
X89810Y41000
X89810Y38460
X82190Y48620
X89810Y48620
X89810Y35920
X89810Y33380
X84730Y52000
X63190Y33380
X63190Y35920
X63190Y38460
X63190Y41000
X63190Y43540
X63190Y46080
X70810Y43540
X70810Y46080
X70810Y41000
X70810Y38460
X63190Y48620
X70810Y48620
X70810Y35920
X70810Y33380
X49270Y22000
X46730Y22000
X47190Y33380
X47190Y35920
X30920Y47000
X41080Y47000
X30920Y44000
X41080Y44000
X30920Y41000
X41080Y41000
X30920Y38000
X41080Y38000
X30920Y35000
X41080Y35000
X30920Y32000
X41080Y32000
X30920Y29000
X41080Y29000
X30920Y26000
X41080Y26000
X30920Y23000
X41080Y23000
X30920Y20000
X41080Y20000
X47190Y38460
X47190Y41000
X30920Y17000
X41080Y17000
X30920Y14000
X41080Y14000
X30920Y11000
X41080Y11000
X58920Y94000
X69080Y94000
X83080Y94000
X72920Y94000
X47190Y43540
X47190Y46080
X58920Y82000
X69080Y82000
X83080Y82000
X72920Y82000
X54810Y43540
X54810Y46080
X58920Y70000
X69080Y70000
X54810Y41000
X54810Y38460
X83080Y70000
X72920Y70000
X47190Y48620
X54810Y48620
X44920Y55000
X55080Y55000
X58920Y58000
X69080Y58000
X58920Y55000
X69080Y55000
X72920Y58000
X83080Y58000
X83080Y55000
X72920Y55000
X75000Y48080
X75000Y37920
X78550Y47930
X78550Y37770
X94000Y33920
X94000Y44080
X54810Y35920
X54810Y33380
X28080Y16000
X17920Y16000
X28080Y13000
X17920Y13000
X97000Y21270
X97000Y18730
X87270Y52000
X65730Y52000
X68270Y52000
X49730Y52000
X30920Y53000
X41080Y53000
X30920Y50000
X41080Y50000
X52270Y52000
T5
X51000Y28500
X67500Y39000
X44000Y19500
X86000Y43500
X48500Y31000
M30